<svg width="72" height="72" viewBox="0 0 72 72" fill="none" xmlns="http://www.w3.org/2000/svg">
<g filter="url(#filter0_d_1_809)">
<rect x="16" y="4" width="40" height="40" rx="12" fill="#D747FF"/>
</g>
<path fill-rule="evenodd" clip-rule="evenodd" d="M30.8438 23.3125V13H41.1562V23.3125H30.8438ZM37.2339 20.3358L37.6146 21.3446H38.9924L36.586 14.9679L35.4358 14.969L33.0076 21.3446H34.387L34.7712 20.3358H37.2339ZM25.043 24.6875V35H35.3555V24.6875H25.043ZM30.4593 33.0387C30.0832 33.0387 28.0474 33.0478 28.0474 33.0478V26.5761H30.1966C31.2092 26.5761 32.033 27.3999 32.033 28.4125C32.0332 28.7675 31.93 29.1148 31.7359 29.412C32.2002 29.786 32.4981 30.3588 32.4981 31C32.498 32.1241 31.5835 33.0387 30.4593 33.0387ZM35.2623 19.0467H36.7476L36.0083 17.0879L35.2623 19.0467ZM36.6446 24.6875V35H46.9571V24.6875H36.6446ZM44.0859 32.4085C42.1039 34.1179 38.93 32.4049 38.9865 29.8437C38.9642 27.2741 41.9308 25.6977 44.0449 27.154L43.3232 28.2222C42.0494 27.3456 40.262 28.2953 40.2755 29.8438C40.2755 30.9217 41.1526 31.7988 42.2306 31.7988C42.7076 31.7983 43.092 31.6311 43.3744 31.2954L44.3622 32.1235C44.2771 32.225 44.1848 32.3203 44.0859 32.4085ZM30.1966 28.9598C30.4984 28.9598 30.744 28.7143 30.744 28.4125C30.744 28.1107 30.4984 27.8652 30.1966 27.8652H29.3366V28.9612C29.3366 28.9612 29.4118 28.9611 29.5182 28.9609L29.5255 28.9609C29.755 28.9605 30.1209 28.9598 30.1966 28.9598ZM30.4594 30.2503C30.4594 30.2503 29.4406 30.2511 29.3366 30.2515V31.7532C29.7531 31.7515 30.2535 31.7497 30.4594 31.7497C30.8728 31.7497 31.2091 31.4134 31.2091 31C31.2091 30.5866 30.8728 30.2503 30.4594 30.2503Z" fill="white"/>
<defs>
<filter id="filter0_d_1_809" x="0" y="0" width="72" height="72" filterUnits="userSpaceOnUse" color-interpolation-filters="sRGB">
<feFlood flood-opacity="0" result="BackgroundImageFix"/>
<feColorMatrix in="SourceAlpha" type="matrix" values="0 0 0 0 0 0 0 0 0 0 0 0 0 0 0 0 0 0 127 0" result="hardAlpha"/>
<feOffset dy="12"/>
<feGaussianBlur stdDeviation="8"/>
<feComposite in2="hardAlpha" operator="out"/>
<feColorMatrix type="matrix" values="0 0 0 0 0.843137 0 0 0 0 0.278431 0 0 0 0 1 0 0 0 0.32 0"/>
<feBlend mode="normal" in2="BackgroundImageFix" result="effect1_dropShadow_1_809"/>
<feBlend mode="normal" in="SourceGraphic" in2="effect1_dropShadow_1_809" result="shape"/>
</filter>
</defs>
</svg>
