<svg width="72" height="72" viewBox="0 0 72 72" fill="none" xmlns="http://www.w3.org/2000/svg">
<g filter="url(#filter0_d_1_835)">
<rect x="16" y="4" width="40" height="40" rx="12" fill="#FF7E47"/>
</g>
<path fill-rule="evenodd" clip-rule="evenodd" d="M41.1287 24.3369H35.1724V13H47V24.3369H44.7189L41.1287 26.513V24.3369ZM40.4416 16.3272H38.0192V17.6163H38.9448C39.0743 18.4643 39.455 19.2752 40.0387 19.938C39.4794 20.2109 38.8045 20.3738 38.0192 20.3738V21.6629C39.3678 21.6629 40.3701 21.2824 41.0861 20.8289C41.8021 21.2824 42.8045 21.6629 44.1531 21.6629V20.3738C43.3678 20.3738 42.6928 20.2109 42.1336 19.938C42.7173 19.2752 43.0981 18.4643 43.2274 17.6163H44.1531V16.3272H41.7307V15.0967H40.4416V16.3272ZM37.2841 25.6257H33.8834V21.4869H25V32.8237H27.5453L31.1355 34.9998V32.8237H37.2841V25.6257ZM32.7002 30.2665L32.1761 28.8778H30.1107L29.5813 30.2677L28.3767 29.8089L30.6033 23.9628L31.6986 23.9616L33.9062 29.8115L32.7002 30.2665ZM41.0862 19.1739C41.516 18.7193 41.7957 18.1757 41.9176 17.6161H40.2549C40.3768 18.1757 40.6565 18.7194 41.0862 19.1739ZM30.6018 27.5889H31.6897L31.1483 26.154L30.6018 27.5889Z" fill="white"/>
<defs>
<filter id="filter0_d_1_835" x="0" y="0" width="72" height="72" filterUnits="userSpaceOnUse" color-interpolation-filters="sRGB">
<feFlood flood-opacity="0" result="BackgroundImageFix"/>
<feColorMatrix in="SourceAlpha" type="matrix" values="0 0 0 0 0 0 0 0 0 0 0 0 0 0 0 0 0 0 127 0" result="hardAlpha"/>
<feOffset dy="12"/>
<feGaussianBlur stdDeviation="8"/>
<feComposite in2="hardAlpha" operator="out"/>
<feColorMatrix type="matrix" values="0 0 0 0 1 0 0 0 0 0.494118 0 0 0 0 0.278431 0 0 0 0.32 0"/>
<feBlend mode="normal" in2="BackgroundImageFix" result="effect1_dropShadow_1_835"/>
<feBlend mode="normal" in="SourceGraphic" in2="effect1_dropShadow_1_835" result="shape"/>
</filter>
</defs>
</svg>
