<svg width="72" height="72" viewBox="0 0 72 72" fill="none" xmlns="http://www.w3.org/2000/svg">
<g filter="url(#filter0_d_1_791)">
<rect x="16" y="4" width="40" height="40" rx="12" fill="#9847FF"/>
</g>
<path fill-rule="evenodd" clip-rule="evenodd" d="M39.8581 25.6988L40.4755 25.7001V34.9866H31.5876V25.6811L32.1382 25.6823C32.157 25.696 35.9985 31.35 35.9985 31.35C35.9985 31.35 39.8458 25.7077 39.8581 25.6988ZM30.2926 24.9011H28.8582V35H30.2926V24.9011ZM43.205 24.9011H41.7705V35H43.205V24.9011ZM30.0701 13C30.8853 13 31.6022 13.4375 31.9869 14.1011C30.9094 14.9248 30.0911 16.071 29.6781 17.3946C28.6432 17.209 27.8551 16.3026 27.8551 15.215C27.8551 13.9937 28.8487 13 30.0701 13ZM44.1447 15.215C44.1447 16.3026 43.3566 17.209 42.3216 17.3946C41.9086 16.071 41.0903 14.9248 40.0128 14.1011C40.3975 13.4375 41.1145 13 41.9297 13C43.151 13 44.1447 13.9937 44.1447 15.215ZM38.3936 19.5509H41.3253L41.3252 20.3172C41.3252 21.7659 40.7537 23.1206 39.7158 24.1318C38.6784 25.1426 37.3092 25.6786 35.8575 25.6407C32.9995 25.5664 30.6744 23.1498 30.6744 20.2539V19.5509H33.6061C34.5772 19.5509 35.4427 19.0929 35.9999 18.3823C36.5571 19.093 37.4226 19.5509 38.3936 19.5509ZM34.1664 21.8681C34.1664 22.8838 34.9929 23.7103 36.0087 23.7103C37.0244 23.7103 37.8509 22.8838 37.8509 21.8681H36.5559C36.5559 22.1698 36.3104 22.4153 36.0087 22.4153C35.7069 22.4153 35.4614 22.1698 35.4614 21.8681H34.1664ZM33.6062 18.2559H30.7905C31.2576 16.0553 33.0878 14.3526 35.3524 14.0769V16.5097H35.3524V16.5105C35.3519 17.473 34.5687 18.2559 33.6062 18.2559ZM41.2093 18.2559H38.3936C37.431 18.2559 36.6479 17.473 36.6474 16.5105V14.0769C38.9119 14.3526 40.7421 16.0553 41.2093 18.2559ZM44.4997 26.2657C45.8224 27.4769 46.5958 29.2025 46.5958 31.0036V34.9865H44.4997V26.2657ZM35.8236 26.9352C35.8831 26.9367 35.9423 26.9375 36.0016 26.9375C36.5248 26.9379 37.0462 26.8766 37.555 26.755L36.001 29.0417L34.4552 26.755C34.9037 26.8629 35.3624 26.9233 35.8236 26.9352ZM25.4035 31.0036C25.4035 29.1263 26.1828 27.4174 27.5629 26.2178V34.9865H25.4035V31.0036Z" fill="white"/>
<defs>
<filter id="filter0_d_1_791" x="0" y="0" width="72" height="72" filterUnits="userSpaceOnUse" color-interpolation-filters="sRGB">
<feFlood flood-opacity="0" result="BackgroundImageFix"/>
<feColorMatrix in="SourceAlpha" type="matrix" values="0 0 0 0 0 0 0 0 0 0 0 0 0 0 0 0 0 0 127 0" result="hardAlpha"/>
<feOffset dy="12"/>
<feGaussianBlur stdDeviation="8"/>
<feComposite in2="hardAlpha" operator="out"/>
<feColorMatrix type="matrix" values="0 0 0 0 0.596078 0 0 0 0 0.278431 0 0 0 0 1 0 0 0 0.32 0"/>
<feBlend mode="normal" in2="BackgroundImageFix" result="effect1_dropShadow_1_791"/>
<feBlend mode="normal" in="SourceGraphic" in2="effect1_dropShadow_1_791" result="shape"/>
</filter>
</defs>
</svg>
