<svg width="72" height="72" viewBox="0 0 72 72" fill="none" xmlns="http://www.w3.org/2000/svg">
<g filter="url(#filter0_d_1_828)">
<rect x="16" y="4" width="40" height="40" rx="12" fill="#477BFF"/>
</g>
<path d="M45.75 20.1122V17.25C45.75 16.8522 45.592 16.4706 45.3107 16.1893C45.0294 15.908 44.6478 15.75 44.25 15.75H27.75C27.3522 15.75 26.9706 15.908 26.6893 16.1893C26.408 16.4706 26.25 16.8522 26.25 17.25V29.25C26.25 29.6478 26.408 30.0294 26.6893 30.3107C26.9706 30.592 27.3522 30.75 27.75 30.75H39V33C38.9988 33.1322 39.0326 33.2624 39.0979 33.3774C39.1633 33.4923 39.2579 33.588 39.3721 33.6546C39.4863 33.7212 39.6161 33.7565 39.7483 33.7567C39.8805 33.757 40.0105 33.7224 40.125 33.6562L42.375 32.3681L44.625 33.6562C44.7395 33.7224 44.8695 33.757 45.0017 33.7567C45.1339 33.7565 45.2637 33.7212 45.3779 33.6546C45.4921 33.588 45.5867 33.4923 45.6521 33.3774C45.7174 33.2624 45.7512 33.1322 45.75 33V27.1378C46.2241 26.6838 46.6014 26.1385 46.8592 25.5348C47.1169 24.9311 47.2498 24.2814 47.2498 23.625C47.2498 22.9686 47.1169 22.3189 46.8592 21.7152C46.6014 21.1115 46.2241 20.5662 45.75 20.1122ZM36 25.5H30.75C30.5511 25.5 30.3603 25.421 30.2197 25.2803C30.079 25.1397 30 24.9489 30 24.75C30 24.5511 30.079 24.3603 30.2197 24.2197C30.3603 24.079 30.5511 24 30.75 24H36C36.1989 24 36.3897 24.079 36.5303 24.2197C36.671 24.3603 36.75 24.5511 36.75 24.75C36.75 24.9489 36.671 25.1397 36.5303 25.2803C36.3897 25.421 36.1989 25.5 36 25.5ZM36 22.5H30.75C30.5511 22.5 30.3603 22.421 30.2197 22.2803C30.079 22.1397 30 21.9489 30 21.75C30 21.5511 30.079 21.3603 30.2197 21.2197C30.3603 21.079 30.5511 21 30.75 21H36C36.1989 21 36.3897 21.079 36.5303 21.2197C36.671 21.3603 36.75 21.5511 36.75 21.75C36.75 21.9489 36.671 22.1397 36.5303 22.2803C36.3897 22.421 36.1989 22.5 36 22.5ZM44.25 31.7072L42.75 30.8484C42.6367 30.7837 42.5084 30.7496 42.3778 30.7496C42.2473 30.7496 42.119 30.7837 42.0056 30.8484L40.5056 31.7072V28.125C41.0996 28.3732 41.7369 28.5009 42.3806 28.5009C43.0243 28.5009 43.6617 28.3732 44.2556 28.125L44.25 31.7072ZM42.375 27C41.7075 27 41.055 26.8021 40.5 26.4312C39.9449 26.0604 39.5124 25.5333 39.2569 24.9166C39.0015 24.2999 38.9346 23.6213 39.0648 22.9666C39.1951 22.3119 39.5165 21.7105 39.9885 21.2385C40.4605 20.7665 41.0619 20.4451 41.7166 20.3148C42.3713 20.1846 43.0499 20.2515 43.6666 20.5069C44.2833 20.7624 44.8104 21.1949 45.1812 21.75C45.5521 22.305 45.75 22.9575 45.75 23.625C45.75 24.0682 45.6627 24.5071 45.4931 24.9166C45.3235 25.326 45.0749 25.6981 44.7615 26.0115C44.4481 26.3249 44.076 26.5735 43.6666 26.7431C43.2571 26.9127 42.8182 27 42.375 27Z" fill="white"/>
<defs>
<filter id="filter0_d_1_828" x="0" y="0" width="72" height="72" filterUnits="userSpaceOnUse" color-interpolation-filters="sRGB">
<feFlood flood-opacity="0" result="BackgroundImageFix"/>
<feColorMatrix in="SourceAlpha" type="matrix" values="0 0 0 0 0 0 0 0 0 0 0 0 0 0 0 0 0 0 127 0" result="hardAlpha"/>
<feOffset dy="12"/>
<feGaussianBlur stdDeviation="8"/>
<feComposite in2="hardAlpha" operator="out"/>
<feColorMatrix type="matrix" values="0 0 0 0 0.278431 0 0 0 0 1 0 0 0 0 0.917647 0 0 0 0.32 0"/>
<feBlend mode="normal" in2="BackgroundImageFix" result="effect1_dropShadow_1_828"/>
<feBlend mode="normal" in="SourceGraphic" in2="effect1_dropShadow_1_828" result="shape"/>
</filter>
</defs>
</svg>
