<svg width="107" height="44" viewBox="0 0 107 44" fill="none" xmlns="http://www.w3.org/2000/svg">
<g clip-path="url(#clip0_1_451)">
<mask id="mask0_1_451" style="mask-type:alpha" maskUnits="userSpaceOnUse" x="8" y="8" width="28" height="28">
<path d="M29.0476 35.987C29.6663 35.9741 30.2893 35.9351 30.8992 35.8271C31.5179 35.7146 32.0976 35.5417 32.6601 35.252C33.2182 34.9753 33.7243 34.6078 34.1613 34.1754C34.5982 33.7431 34.9703 33.2415 35.2473 32.6924C35.5327 32.1346 35.7145 31.5683 35.827 30.9543C35.9394 30.349 35.9741 29.735 35.987 29.1211C35.9957 28.84 35.9957 28.559 36 28.2779V15.7177C36 15.4367 36 15.1557 35.987 14.8746C35.9741 14.265 35.9351 13.6467 35.827 13.0414C35.7145 12.4274 35.5327 11.8567 35.2473 11.3033C34.966 10.7585 34.5982 10.257 34.1613 9.82026C33.7243 9.38789 33.2139 9.02038 32.6601 8.74367C32.0933 8.46263 31.5179 8.28104 30.8992 8.16862C30.2893 8.06053 29.6663 8.02162 29.0476 8.00865C28.9308 8.00865 28.8139 8.00432 28.6236 8H16.1551L14.9611 8.01297C14.3424 8.02594 13.7194 8.06485 13.1094 8.17295C12.4907 8.28536 11.911 8.46263 11.3486 8.74799C10.7905 9.02471 10.2843 9.39222 9.84735 9.82458C9.41038 10.257 9.03832 10.7585 8.76143 11.3076C8.47157 11.8654 8.29419 12.4317 8.18171 13.0457C8.06489 13.651 8.03028 14.265 8.01298 14.8789C8.00433 15.16 8.00433 15.441 8 15.722V28.2823C8 28.5633 8.00433 28.8444 8.01298 29.1254C8.02596 29.735 8.06489 30.3533 8.17305 30.9586C8.28554 31.5726 8.46724 32.1433 8.75278 32.6967C9.03399 33.2415 9.40173 33.7431 9.83869 34.1798C10.2757 34.6121 10.7862 34.9796 11.3399 35.2564C11.9067 35.5374 12.4821 35.7189 13.1007 35.8314C13.7108 35.9394 14.3337 35.9784 14.9524 35.9914C15.0692 35.9914 15.186 35.9957 15.3764 36H27.1829L29.039 35.9914L29.0476 35.987Z" fill="#299400"/>
</mask>
<g mask="url(#mask0_1_451)">
<path d="M8 8H36V36H8V8Z" fill="#19AA1E"/>
<path fill-rule="evenodd" clip-rule="evenodd" d="M8 8H36V17.1875L8 12.8125V8Z" fill="#FFB919"/>
<path fill-rule="evenodd" clip-rule="evenodd" d="M8 32.9375L36 28.5625V36H8V32.9375Z" fill="#82D714"/>
<path fill-rule="evenodd" clip-rule="evenodd" d="M8 12.259L17.7736 13.7861C18.9903 13.016 20.4377 12.5938 22 12.5938C24.1638 12.5938 26.1074 13.4038 27.5225 14.8262C27.7012 15.0057 27.8696 15.1934 28.0275 15.3883L36 16.634V17.741L28.837 16.6218C29.3691 17.643 29.6562 18.7809 29.6562 19.942C29.6562 21.4421 29.3207 22.9378 28.6271 24.4395L28.606 24.485L28.3114 25.1162H27.6148C26.1764 25.1162 25.2223 25.5465 24.5985 26.309C24.1087 26.9077 23.8255 27.7148 23.7302 28.5954L23.7273 28.623L23.7134 28.7637L23.7074 28.8249L23.6961 28.9446C23.6596 29.3378 23.6352 29.6712 23.6228 29.9429L36 28.0091V29.116L8 33.491V32.3841L20.391 30.4479L20.3857 30.1994L20.384 30.1293L20.383 30.0933L20.381 30.0379C20.3699 29.7366 20.3423 29.3503 20.2981 28.8821L20.2895 28.7933L20.2744 28.6395C20.1855 27.7543 19.9064 26.9369 19.4179 26.3293C18.8007 25.5616 17.8553 25.1251 16.4285 25.1163L16.3851 25.1162H15.6886L15.394 24.485C14.6861 22.968 14.3438 21.4573 14.3438 19.942C14.3438 18.0365 15.1168 16.1939 16.4775 14.8262C16.5167 14.7868 16.5564 14.7477 16.5965 14.7092L8 13.366V12.259Z" fill="white"/>
<path fill-rule="evenodd" clip-rule="evenodd" d="M22 13.6875C25.909 13.6875 28.5625 16.6963 28.5625 19.942C28.5625 21.245 28.2782 22.6009 27.6148 24.0224C23.7683 24.0224 22.8189 26.7771 22.6393 28.5103L22.6279 28.6258C22.567 29.2444 22.5319 29.7407 22.5222 30.1149L21.4804 30.2777L21.4801 30.244C21.4762 29.8518 21.4391 29.3016 21.3689 28.5934L21.3659 28.5625C21.2 26.833 20.2705 24.0224 16.3851 24.0224C15.7218 22.6009 15.4375 21.245 15.4375 19.942C15.4375 16.6963 18.0909 13.6875 22 13.6875Z" fill="#0073FA"/>
</g>
</g>
<path d="M62.3039 20.9718L58.7882 24.0054L59.8593 28.5421C59.9184 28.7884 59.9032 29.0466 59.8156 29.2843C59.728 29.5219 59.5719 29.7282 59.3671 29.8772C59.1623 30.0262 58.9179 30.1111 58.6648 30.1213C58.4118 30.1314 58.1614 30.0664 57.9453 29.9343L53.9999 27.5061L50.0523 29.9343C49.8362 30.0656 49.5861 30.13 49.3335 30.1195C49.0809 30.109 48.837 30.0239 48.6326 29.8751C48.4282 29.7262 48.2724 29.5202 48.1849 29.283C48.0973 29.0458 48.0819 28.788 48.1406 28.5421L49.2156 24.0054L45.7 20.9718C45.5088 20.8065 45.3705 20.5887 45.3024 20.3453C45.2344 20.102 45.2395 19.844 45.3172 19.6035C45.3948 19.3631 45.5416 19.1509 45.7392 18.9933C45.9368 18.8358 46.1764 18.74 46.4281 18.7179L51.0375 18.346L52.8156 14.0429C52.9118 13.8083 53.0756 13.6077 53.2862 13.4666C53.4967 13.3254 53.7445 13.25 53.998 13.25C54.2515 13.25 54.4993 13.3254 54.7098 13.4666C54.9204 13.6077 55.0842 13.8083 55.1804 14.0429L56.9578 18.346L61.5671 18.7179C61.8193 18.7392 62.0596 18.8345 62.2579 18.9918C62.4562 19.1491 62.6037 19.3614 62.6819 19.6021C62.76 19.8429 62.7654 20.1013 62.6973 20.3451C62.6292 20.5889 62.4907 20.8071 62.2992 20.9725L62.3039 20.9718Z" fill="#F9CB2D"/>
<path d="M80.432 23.016H82.16V24.456H80.432V27H78.56V24.456H72.784L72.416 23.384L77.952 15.8H80.432V23.016ZM78.56 17.304L74.608 23.016H78.56V17.304ZM84.037 27V24.984H86.341V27H84.037ZM92.658 15.608C93.65 15.608 94.4927 15.8213 95.186 16.248C95.89 16.6747 96.418 17.272 96.77 18.04C97.122 18.808 97.298 19.704 97.298 20.728C97.298 22.872 96.8873 24.4827 96.066 25.56C95.2553 26.6373 94.0073 27.176 92.322 27.176C90.8927 27.176 89.6873 26.7653 88.706 25.944L89.698 24.6C90.0073 24.888 90.386 25.1067 90.834 25.256C91.282 25.4053 91.7513 25.48 92.242 25.48C94.0447 25.48 95.0527 24.4453 95.266 22.376L95.298 21.88C95.2233 22.072 95.0473 22.2853 94.77 22.52C94.4927 22.7547 94.1353 22.9573 93.698 23.128C93.2713 23.288 92.8127 23.368 92.322 23.368C91.4793 23.368 90.7487 23.208 90.13 22.888C89.5113 22.568 89.0367 22.1307 88.706 21.576C88.3753 21.0213 88.21 20.4027 88.21 19.72C88.21 18.8773 88.3967 18.1467 88.77 17.528C89.154 16.8987 89.682 16.424 90.354 16.104C91.026 15.7733 91.794 15.608 92.658 15.608ZM92.61 17.24C91.906 17.24 91.3247 17.4533 90.866 17.88C90.418 18.296 90.194 18.8507 90.194 19.544C90.194 19.9813 90.3007 20.376 90.514 20.728C90.7273 21.0693 91.0153 21.336 91.378 21.528C91.7407 21.72 92.1353 21.816 92.562 21.816C92.9887 21.816 93.3887 21.72 93.762 21.528C94.1353 21.336 94.434 21.0693 94.658 20.728C94.8927 20.376 95.01 19.976 95.01 19.528C95.01 18.8667 94.7967 18.3227 94.37 17.896C93.954 17.4587 93.3673 17.24 92.61 17.24Z" fill="#323231"/>
<defs>
<clipPath id="clip0_1_451">
<rect x="8" y="8" width="28" height="28" rx="10" fill="white"/>
</clipPath>
</defs>
</svg>
