<svg width="7" height="11" viewBox="0 0 7 11" fill="none" xmlns="http://www.w3.org/2000/svg">
<path d="M6.35403 5.85403L1.35403 10.854C1.30757 10.9005 1.25242 10.9373 1.19173 10.9625C1.13103 10.9876 1.06598 11.0006 1.00028 11.0006C0.934581 11.0006 0.869526 10.9876 0.80883 10.9625C0.748133 10.9373 0.692983 10.9005 0.646528 10.854C0.600073 10.8076 0.563222 10.7524 0.538081 10.6917C0.51294 10.631 0.5 10.566 0.5 10.5003C0.5 10.4346 0.51294 10.3695 0.538081 10.3088C0.563222 10.2481 0.600073 10.193 0.646528 10.1465L5.2934 5.50028L0.646528 0.854028C0.552707 0.760208 0.5 0.63296 0.5 0.500278C0.5 0.367596 0.552707 0.240348 0.646528 0.146528C0.740348 0.0527077 0.867596 9.88558e-10 1.00028 0C1.13296 -9.88558e-10 1.26021 0.0527077 1.35403 0.146528L6.35403 5.14653C6.40052 5.19296 6.4374 5.24811 6.46256 5.30881C6.48772 5.36951 6.50067 5.43457 6.50067 5.50028C6.50067 5.56599 6.48772 5.63105 6.46256 5.69175C6.4374 5.75245 6.40052 5.80759 6.35403 5.85403Z" fill="#323231" fill-opacity="0.7"/>
</svg>
