<svg width="24" height="24" viewBox="0 0 24 24" fill="none" xmlns="http://www.w3.org/2000/svg">
<g opacity="0.5">
<rect x="2" y="2" width="20" height="20" rx="6" fill="#E13B22"/>
<path d="M16.281 9.21948C16.3508 9.28913 16.4061 9.37185 16.4438 9.4629C16.4816 9.55395 16.501 9.65154 16.501 9.7501C16.501 9.84866 16.4816 9.94626 16.4438 10.0373C16.4061 10.1284 16.3508 10.2111 16.281 10.2807L11.031 15.5307C10.9614 15.6005 10.8787 15.6558 10.7876 15.6935C10.6966 15.7313 10.599 15.7507 10.5004 15.7507C10.4019 15.7507 10.3043 15.7313 10.2132 15.6935C10.1222 15.6558 10.0394 15.6005 9.96979 15.5307L7.71979 13.2807C7.57906 13.14 7.5 12.9491 7.5 12.7501C7.5 12.5511 7.57906 12.3602 7.71979 12.2195C7.86052 12.0787 8.05139 11.9997 8.25042 11.9997C8.44944 11.9997 8.64031 12.0787 8.78104 12.2195L10.5004 13.9398L15.2198 9.21948C15.2894 9.14974 15.3722 9.09443 15.4632 9.05668C15.5543 9.01894 15.6519 8.99951 15.7504 8.99951C15.849 8.99951 15.9466 9.01894 16.0376 9.05668C16.1287 9.09443 16.2114 9.14974 16.281 9.21948Z" fill="white"/>
</g>
</svg>
