<svg width="76" height="76" viewBox="0 0 76 76" fill="none" xmlns="http://www.w3.org/2000/svg">
<path d="M49.2345 40.7309C48.1164 40.0486 42.4344 36.4213 42.0246 36.1201C41.827 35.9821 41.7741 35.5427 41.8752 34.8469C42.5687 29.6323 42.9211 24.1774 42.6175 23.4795C42.3962 22.9524 41.2049 22.782 40.7536 23.1926C40.3024 23.6033 37.485 28.2276 35.6315 31.6431L34.4168 33.869C22.1575 34.4112 21.5619 34.1665 26.2559 37.104L30.4009 39.7029C32.7552 41.1842 32.8095 41.2198 32.7787 41.8919C32.7331 42.8577 32.8359 47.648 32.7646 49.9039C32.5967 54.7491 35.5007 52.5081 39.6661 44.5243L40.6247 42.6975C40.8741 42.7218 42.4235 42.9881 49.3276 43.3285C50.9104 43.3912 50.8872 41.7266 49.2345 40.7309Z" fill="#323231"/>
<path d="M40.4569 40.6965C41.3125 40.9258 45.9521 41.0421 46.1485 40.9459C46.3701 40.8351 42.6563 38.4578 40.9664 37.6011C39.6134 36.9196 39.6599 37.1449 40.003 32.2829C40.3272 27.9686 40.327 27.9686 39.7667 28.9453L36.5987 34.56C36.2801 35.1124 35.7161 35.3865 35.1789 35.2426C34.6217 35.0933 29.3213 35.374 28.2267 35.3996C27.3472 35.4191 27.6376 35.6882 29.6683 36.7852C33.7099 38.9737 34.7179 39.669 34.6885 40.2565C34.663 40.9087 35.056 43.8203 34.9927 46.2059C34.9521 48.1086 35.0274 48.0652 36.6274 45.1984C39.0505 40.8512 39.4222 40.4192 40.4569 40.6965Z" fill="white"/>
</svg>
