<svg width="69" height="71" viewBox="0 0 69 71" fill="none" xmlns="http://www.w3.org/2000/svg">
<path d="M53.1528 25.3448C50.9062 25.7976 39.2995 27.8929 38.4154 27.9932C37.9976 28.0509 37.4075 27.5496 36.7105 26.536C31.4035 19.0163 25.3729 11.5933 24.1538 11.0579C23.2432 10.6442 21.511 11.8413 21.4196 12.9048C21.3282 13.9684 23.2067 23.2544 24.8858 29.8427L25.9716 34.1444C10.875 49.4103 9.81948 49.8041 19.3376 47.9971L27.7487 46.4079C32.5321 45.5119 32.644 45.4931 33.4032 46.3927C34.4926 47.6869 40.3176 53.7156 42.9071 56.6969C48.4498 63.1176 49.5153 56.7888 45.3751 41.5872L44.435 38.1023C44.7842 37.8371 47.09 36.3377 56.3594 28.5695C58.4662 26.7689 56.4581 24.659 53.1528 25.3448Z" fill="#323231"/>
<path d="M41.8413 35.7324C43.2124 35.0099 49.3078 29.6453 49.4456 29.2884C49.5986 28.8828 42.0048 30.2441 38.8167 31.1523C36.2696 31.8853 36.597 32.1193 31.2592 25.4688C26.5482 19.544 26.5478 19.5441 26.9892 21.4642L29.5944 32.4384C29.8418 33.5264 29.4434 34.5487 28.5825 35.0023C27.6897 35.4728 21.2175 42.1326 19.8426 43.4663C18.7364 44.5366 19.4292 44.5371 23.3402 43.5321C31.1307 41.5389 33.2513 41.2337 33.9117 42.023C34.6542 42.8908 38.6192 46.1622 41.373 49.3006C43.5821 51.7918 43.6273 51.6466 42.2745 46.0641C40.2194 37.6025 40.1832 36.6062 41.8413 35.7324Z" fill="white"/>
</svg>
