<svg width="64" height="64" viewBox="0 0 64 64" fill="none" xmlns="http://www.w3.org/2000/svg">
<path d="M26.3671 48.2268C26.1435 49.2489 28.5039 49.6967 36.4199 50.1668C44.7997 50.6591 46.6661 50.4627 46.5001 49.2184C46.2507 47.5101 26.7712 46.5831 26.3671 48.2268Z" fill="#323231"/>
<path d="M25.5498 11.1702C22.4514 10.7208 21.976 11.1942 18.9682 17.7027C15.8546 24.4218 15.525 25.76 16.7359 26.4478C18.9365 27.6859 20.3313 26.1708 24.597 18.0521C27.7407 12.0604 27.8367 11.5019 25.5498 11.1702Z" fill="#323231"/>
<path d="M41.1346 24.3071C38.911 23.9544 38.0353 24.2794 35.026 26.5395C26.1248 33.2779 19.2321 37.3851 23.5741 37.9847C25.3446 38.2415 27.1286 37.1595 37.8025 29.6236C43.6833 25.4299 44.1063 24.7983 41.1346 24.3071Z" fill="#323231"/>
</svg>
