<svg width="14" height="20" viewBox="0 0 14 20" fill="none" xmlns="http://www.w3.org/2000/svg">
<path d="M13.875 7.49999C13.8757 6.3414 13.5836 5.20143 13.0258 4.18595C12.468 3.17047 11.6626 2.31244 10.6844 1.69153C9.70623 1.07063 8.58701 0.706997 7.43069 0.634416C6.27438 0.561835 5.11847 0.782656 4.07034 1.27637C3.02221 1.77008 2.11584 2.52068 1.43544 3.45843C0.755032 4.39619 0.32265 5.49068 0.178455 6.64027C0.03426 7.78985 0.182928 8.95723 0.61065 10.034C1.03837 11.1107 1.73128 12.0619 2.625 12.7992V18.75C2.62492 18.8566 2.65211 18.9614 2.70397 19.0545C2.75584 19.1477 2.83065 19.226 2.92131 19.282C3.01197 19.3381 3.11546 19.37 3.22195 19.3748C3.32843 19.3796 3.43437 19.3571 3.52969 19.3094L7 17.5781L10.4711 19.3133C10.5581 19.3549 10.6535 19.376 10.75 19.375C10.9158 19.375 11.0747 19.3091 11.1919 19.1919C11.3092 19.0747 11.375 18.9158 11.375 18.75V12.7992C12.157 12.1552 12.7867 11.346 13.2189 10.4298C13.6512 9.51358 13.8752 8.51305 13.875 7.49999ZM1.375 7.49999C1.375 6.38747 1.7049 5.29994 2.32298 4.37491C2.94107 3.44988 3.81957 2.72891 4.84741 2.30317C5.87524 1.87743 7.00624 1.76603 8.09738 1.98308C9.18853 2.20012 10.1908 2.73585 10.9775 3.52252C11.7641 4.30919 12.2999 5.31147 12.5169 6.40261C12.734 7.49375 12.6226 8.62475 12.1968 9.65259C11.7711 10.6804 11.0501 11.5589 10.1251 12.177C9.20006 12.7951 8.11252 13.125 7 13.125C5.50867 13.1233 4.07889 12.5302 3.02435 11.4756C1.96982 10.4211 1.37666 8.99133 1.375 7.49999ZM2.625 7.49999C2.625 6.6347 2.88159 5.78884 3.36232 5.06937C3.84305 4.34991 4.52633 3.78915 5.32576 3.45802C6.12519 3.12689 7.00485 3.04025 7.85352 3.20906C8.70219 3.37787 9.48174 3.79455 10.0936 4.4064C10.7054 5.01826 11.1221 5.79781 11.2909 6.64647C11.4597 7.49514 11.3731 8.37481 11.042 9.17423C10.7108 9.97366 10.1501 10.6569 9.43062 11.1377C8.71116 11.6184 7.86529 11.875 7 11.875C5.84006 11.8738 4.72798 11.4124 3.90778 10.5922C3.08758 9.77201 2.62624 8.65993 2.625 7.49999Z" fill="#EFB748"/>
</svg>
