<svg width="57" height="59" viewBox="0 0 57 59" fill="none" xmlns="http://www.w3.org/2000/svg">
<path d="M42.71 21.7408C52.7717 17.0818 56.8494 14.447 55.5041 13.4874C54.8003 12.9993 54.4411 12.9696 52.8959 13.2544C49.8989 13.8492 38.0778 19.4679 37.8199 20.4305C37.4621 21.7657 40.6931 22.6647 42.71 21.7408Z" fill="#323231"/>
<path d="M21.0583 16.2058C22.2692 15.798 22.2402 15.6572 19.4099 10.2728C17.9159 7.37623 16.5628 5.44949 15.4355 4.54838C13.8993 3.30473 12.7754 4.13519 13.2277 5.18823C17.0698 14.2717 18.9668 16.91 21.0583 16.2058Z" fill="#323231"/>
<path d="M46.0671 33.7562C44.3169 32.6882 35.4229 27.0102 34.7814 26.5388C34.4721 26.3228 34.3893 25.635 34.5476 24.5459C35.6331 16.3835 36.1847 7.84484 35.7096 6.7524C35.3631 5.92739 33.4983 5.66068 32.792 6.30343C32.0856 6.94618 27.6757 14.1847 24.7743 19.5309L22.8729 23.0151C3.68343 23.8638 2.75108 23.4809 10.0987 28.0789L16.5869 32.147C20.2721 34.4657 20.357 34.5214 20.3088 35.5734C20.2375 37.0853 20.3983 44.5835 20.2867 48.1147C20.0239 55.6988 24.5696 52.1909 31.0896 39.6939L32.5902 36.8345C32.9806 36.8725 35.4058 37.2894 46.2128 37.8222C48.6903 37.9202 48.6541 35.3146 46.0671 33.7562Z" fill="#323231"/>
<path d="M32.3276 33.7023C33.667 34.0611 40.9292 34.2432 41.2366 34.0926C41.5835 33.9193 35.7704 30.1981 33.1252 28.857C31.0074 27.7903 31.0801 28.1429 31.6171 20.5324C32.1246 13.7793 32.1243 13.7793 31.2473 15.3081L26.2884 24.0967C25.7897 24.9615 24.9069 25.3906 24.0659 25.1652C23.1938 24.9315 14.8971 25.3709 13.1837 25.411C11.807 25.4415 12.2616 25.8628 15.4402 27.5798C21.7665 31.0055 23.3444 32.0939 23.2983 33.0135C23.2584 34.0345 23.8737 38.592 23.7745 42.3262C23.7109 45.3044 23.8289 45.2365 26.3333 40.749C30.1262 33.9444 30.708 33.2683 32.3276 33.7023Z" fill="white"/>
<path d="M33.3546 40.8333C33.1716 41.5164 39.173 52.0105 40.2007 52.785C42.3639 54.4296 43.3364 53.2921 41.9627 50.6942C38.2837 43.6181 33.937 38.6597 33.3546 40.8333Z" fill="#323231"/>
<path d="M8.83878 36.3944C1.77686 38.8286 0.84198 39.5766 3.83213 40.3778C5.29605 40.77 16.2607 36.8522 16.205 35.9387C16.1184 34.5177 13.8484 34.6416 8.83878 36.3944Z" fill="#323231"/>
</svg>
