<svg width="68" height="98" viewBox="0 0 68 98" fill="none" xmlns="http://www.w3.org/2000/svg">
<path d="M36.3278 35.2619C31.872 31.5582 28.1027 26.5506 25.3294 20.6868C23.195 16.1664 19.901 7.75362 19.7426 6.38676C19.4959 4.25702 15.582 3.8407 16.0607 7.97306C16.3075 10.1028 16.3414 22.6301 12.9399 30.53C9.72047 38.0544 8.37283 40.0471 5.6837 41.5828C4.13988 42.4381 4.45303 42.9169 6.83379 43.4465C12.7203 44.7618 15.812 49.2035 23.0215 66.6658C27.2248 76.8095 29.0316 76.278 29.2819 64.8131C29.5077 53.4153 33.6891 40.0131 37.5641 38.1468C38.8476 37.5471 38.7191 37.272 36.3278 35.2619Z" fill="#323231"/>
<path d="M25.0543 60.0197L25.3268 57.0889C26.6757 41.7598 33.5038 38.1343 33.8056 37.6805L30.9532 35.3047C26.6075 31.717 23.2739 27.6899 21.0234 23.2796C19.9465 21.2138 19.8659 21.352 19.5997 24.8942C19.0776 32.6216 15.378 41.007 12.4218 41.3495C11.5 41.4563 11.8339 41.8364 13.5411 42.6694C19.7927 45.7464 24.7227 59.3817 25.0543 60.0197Z" fill="white"/>
<path d="M63.5847 70.0522C58.1227 66.5616 53.6312 59.7697 52.9426 53.8254C52.6406 51.2189 48.8296 48.632 48.3844 56.1894C47.8593 65.5601 47.1012 68.1928 43.9254 72.2009C41.3079 75.4679 41.2541 75.2808 45.091 75.8671C48.6663 76.4194 51.7715 80.6988 54.41 88.7365C56.0519 93.7328 59.8603 93.5167 59.4153 88.2852C58.7871 80.9165 59.9968 76.6208 63.5314 73.763C65.7668 71.9255 65.7751 71.4414 63.5847 70.0522Z" fill="#323231"/>
<path d="M55.6163 76.9027C56.183 75.6773 58.8972 72.6895 59.9656 72.1791C60.2088 72.0543 59.9776 71.7264 59.3257 71.3831C56.9653 69.917 55.0389 68.3043 53.7985 66.7729C52.1775 64.738 52.3645 64.6837 51.2545 67.615C50.766 68.9601 49.7289 70.8524 48.9383 71.8137C47.3045 73.8392 47.2801 73.9062 48.4539 74.0279C49.981 74.1409 52.4331 75.5641 53.5635 76.9795C54.8823 78.6307 54.8505 78.6343 55.6163 76.9027Z" fill="white"/>
</svg>
