<svg width="37" height="38" viewBox="0 0 37 38" fill="none" xmlns="http://www.w3.org/2000/svg">
<path d="M28.0898 14.055C34.5178 11.0785 37.1229 9.39525 36.2634 8.78225C35.8138 8.47042 35.5843 8.45143 34.5971 8.63341C32.6825 9.01337 25.1305 12.6029 24.9657 13.2179C24.7372 14.0709 26.8013 14.6452 28.0898 14.055Z" fill="#323231"/>
<path d="M14.2577 10.5187C15.0313 10.2582 15.0127 10.1682 13.2045 6.72838C12.2501 4.87793 11.3857 3.64702 10.6655 3.07134C9.68408 2.27683 8.96606 2.80737 9.255 3.48011C11.7095 9.28315 12.9215 10.9686 14.2577 10.5187Z" fill="#323231"/>
<path d="M30.2346 21.731C29.1165 21.0487 23.4345 17.4213 23.0247 17.1201C22.8271 16.9821 22.7742 16.5427 22.8753 15.8469C23.5688 10.6323 23.9212 5.1774 23.6177 4.47949C23.3963 3.95243 22.205 3.78204 21.7537 4.19266C21.3025 4.60328 18.4852 9.22767 16.6316 12.6431L15.4169 14.869C3.15761 15.4112 2.56198 15.1666 7.25601 18.104L11.401 20.7029C13.7554 22.1842 13.8096 22.2198 13.7788 22.8919C13.7333 23.8578 13.836 28.6481 13.7647 30.9039C13.5968 35.7491 16.5008 33.5081 20.6662 25.5243L21.6249 23.6975C21.8743 23.7219 23.4236 23.9882 30.3277 24.3286C31.9105 24.3912 31.8873 22.7266 30.2346 21.731Z" fill="#323231"/>
<path d="M21.457 21.6965C22.3127 21.9258 26.9522 22.0421 27.1486 21.9459C27.3702 21.8351 23.6564 19.4578 21.9665 18.6011C20.6136 17.9196 20.6601 18.1449 21.0031 13.2829C21.3273 8.96865 21.3271 8.9686 20.7668 9.94532L17.5989 15.56C17.2802 16.1124 16.7162 16.3865 16.179 16.2426C15.6218 16.0933 10.3214 16.374 9.22686 16.3996C8.34733 16.4191 8.63777 16.6882 10.6684 17.7852C14.71 19.9737 15.718 20.669 15.6886 21.2565C15.6631 21.9087 16.0562 24.8203 15.9928 27.2059C15.9522 29.1086 16.0276 29.0652 17.6275 26.1984C20.0506 21.8512 20.4223 21.4192 21.457 21.6965Z" fill="white"/>
<path d="M22.1131 26.2522C21.9961 26.6886 25.8302 33.3927 26.4867 33.8876C27.8687 34.9382 28.49 34.2115 27.6124 32.5519C25.262 28.0312 22.4851 24.8636 22.1131 26.2522Z" fill="#323231"/>
<path d="M6.45107 23.4163C1.93954 24.9714 1.34228 25.4492 3.25255 25.9611C4.18779 26.2117 11.1926 23.7088 11.157 23.1252C11.1017 22.2174 9.65152 22.2965 6.45107 23.4163Z" fill="#323231"/>
</svg>
