<svg width="83" height="83" viewBox="0 0 83 83" fill="none" xmlns="http://www.w3.org/2000/svg">
<path d="M43.1738 30.6842C39.7096 27.8048 36.7792 23.9117 34.6231 19.3529C32.9637 15.8385 30.4028 9.29808 30.2797 8.23543C30.0879 6.57967 27.045 6.25601 27.4172 9.46868C27.609 11.1244 27.6354 20.8637 24.991 27.0055C22.488 32.8553 21.4403 34.4044 19.3497 35.5984C18.1494 36.2633 18.3929 36.6356 20.2438 37.0473C24.8202 38.0699 27.2238 41.523 32.8288 55.099C36.0966 62.9852 37.5013 62.572 37.6959 53.6586C37.8715 44.7975 41.1223 34.378 44.1348 32.927C45.1327 32.4608 45.0328 32.247 43.1738 30.6842Z" fill="#323231"/>
<path d="M34.4092 49.9323L34.6211 47.6537C35.6698 35.7362 40.9782 32.9176 41.2129 32.5648L38.9953 30.7177C35.6167 27.9285 33.025 24.7977 31.2754 21.3689C30.4382 19.7628 30.3755 19.8703 30.1686 22.6241C29.7626 28.6318 26.8864 35.1509 24.5881 35.4172C23.8715 35.5002 24.1311 35.7957 25.4584 36.4434C30.3187 38.8356 34.1514 49.4362 34.4092 49.9323Z" fill="white"/>
<path d="M64.3645 57.7317C60.1181 55.018 56.6262 49.7376 56.0908 45.1163C55.8561 43.0899 52.8932 41.0787 52.5471 46.9542C52.1388 54.2393 51.5495 56.2861 49.0805 59.4022C47.0456 61.9421 47.0037 61.7967 49.9867 62.2525C52.7663 62.6818 55.1803 66.0088 57.2317 72.2577C58.5081 76.142 61.469 75.9741 61.123 71.9068C60.6346 66.1781 61.5751 62.8384 64.323 60.6166C66.0609 59.1881 66.0674 58.8117 64.3645 57.7317Z" fill="#323231"/>
<path d="M58.1695 63.0576C58.6101 62.1049 60.7202 59.782 61.5508 59.3852C61.7399 59.2882 61.5601 59.0333 61.0534 58.7664C59.2183 57.6266 57.7206 56.3728 56.7562 55.1822C55.496 53.6001 55.6414 53.558 54.7784 55.8369C54.3987 56.8826 53.5924 58.3538 52.9777 59.1012C51.7076 60.6759 51.6885 60.7279 52.6011 60.8225C53.7884 60.9104 55.6947 62.0169 56.5736 63.1172C57.5988 64.4009 57.5741 64.4038 58.1695 63.0576Z" fill="white"/>
</svg>
