<svg width="107" height="44" viewBox="0 0 107 44" fill="none" xmlns="http://www.w3.org/2000/svg">
<g clip-path="url(#clip0_1_443)">
<path d="M8 12.9C8 10.1938 10.1938 8 12.9 8H31.1C33.8062 8 36 10.1938 36 12.9V31.1C36 33.8062 33.8062 36 31.1 36H12.9C10.1938 36 8 33.8062 8 31.1V12.9Z" fill="#0F9AEF"/>
<path fill-rule="evenodd" clip-rule="evenodd" d="M31.9033 17.625C28.8644 17.625 26.0336 18.5063 23.646 20.0219C22.2322 20.9193 20.9741 22.0384 19.9228 23.3331C18.6416 22.3792 17.1638 21.675 15.5622 21.2869C14.6444 21.0644 13.6866 20.9436 12.7002 20.9436C12.2952 20.9436 11.8949 20.9635 11.5 21.0025C12.9443 21.1445 14.3124 21.543 15.5622 22.1471C16.8464 22.7681 18.0035 23.6082 18.9852 24.62C19.5082 25.159 19.9807 25.7465 20.3964 26.375C20.6885 25.7668 21.0183 25.1804 21.3848 24.6197C22.5197 22.8829 23.9944 21.388 25.7176 20.2322C27.8599 18.7953 30.3824 17.8802 33.1033 17.6709C32.7074 17.6406 32.3071 17.625 31.9033 17.625Z" fill="white"/>
</g>
<path d="M62.3039 20.9718L58.7882 24.0054L59.8593 28.5421C59.9184 28.7884 59.9032 29.0466 59.8156 29.2843C59.728 29.5219 59.5719 29.7282 59.3671 29.8772C59.1623 30.0262 58.9179 30.1111 58.6648 30.1213C58.4118 30.1314 58.1614 30.0664 57.9453 29.9343L53.9999 27.5061L50.0523 29.9343C49.8362 30.0656 49.5861 30.13 49.3335 30.1195C49.0809 30.109 48.837 30.0239 48.6326 29.8751C48.4282 29.7262 48.2724 29.5202 48.1849 29.283C48.0973 29.0458 48.0819 28.788 48.1406 28.5421L49.2156 24.0054L45.7 20.9718C45.5088 20.8065 45.3705 20.5887 45.3024 20.3453C45.2344 20.102 45.2395 19.844 45.3172 19.6035C45.3948 19.3631 45.5416 19.1509 45.7392 18.9933C45.9368 18.8358 46.1764 18.74 46.4281 18.7179L51.0375 18.346L52.8156 14.0429C52.9118 13.8083 53.0756 13.6077 53.2862 13.4666C53.4967 13.3254 53.7445 13.25 53.998 13.25C54.2515 13.25 54.4993 13.3254 54.7098 13.4666C54.9204 13.6077 55.0842 13.8083 55.1804 14.0429L56.9578 18.346L61.5671 18.7179C61.8193 18.7392 62.0596 18.8345 62.2579 18.9918C62.4562 19.1491 62.6037 19.3614 62.6819 19.6021C62.76 19.8429 62.7654 20.1013 62.6973 20.3451C62.6292 20.5889 62.4907 20.8071 62.2992 20.9725L62.3039 20.9718Z" fill="#F9CB2D"/>
<path d="M80.432 23.016H82.16V24.456H80.432V27H78.56V24.456H72.784L72.416 23.384L77.952 15.8H80.432V23.016ZM78.56 17.304L74.608 23.016H78.56V17.304ZM84.037 27V24.984H86.341V27H84.037ZM93.106 27.176C92.114 27.176 91.25 26.9307 90.514 26.44C89.778 25.9493 89.2073 25.2667 88.802 24.392C88.4073 23.5067 88.21 22.504 88.21 21.384C88.21 20.2853 88.4073 19.2987 88.802 18.424C89.1967 17.5493 89.762 16.8667 90.498 16.376C91.2447 15.8747 92.1193 15.624 93.122 15.624C94.114 15.624 94.978 15.8693 95.714 16.36C96.4607 16.8507 97.0313 17.5333 97.426 18.408C97.8207 19.2827 98.018 20.28 98.018 21.4C98.018 22.5093 97.8207 23.5013 97.426 24.376C97.0313 25.2507 96.4607 25.9387 95.714 26.44C94.978 26.9307 94.1087 27.176 93.106 27.176ZM93.122 25.56C93.73 25.56 94.2527 25.3787 94.69 25.016C95.1273 24.6427 95.458 24.1413 95.682 23.512C95.906 22.8827 96.018 22.184 96.018 21.416C96.018 20.616 95.8953 19.9013 95.65 19.272C95.4153 18.6427 95.0793 18.152 94.642 17.8C94.2047 17.4373 93.6927 17.256 93.106 17.256C92.498 17.256 91.9753 17.4373 91.538 17.8C91.1007 18.1627 90.77 18.6587 90.546 19.288C90.322 19.9067 90.21 20.6053 90.21 21.384C90.21 22.184 90.3273 22.904 90.562 23.544C90.8073 24.1733 91.1487 24.6693 91.586 25.032C92.0233 25.384 92.5353 25.56 93.122 25.56Z" fill="#323231"/>
<defs>
<clipPath id="clip0_1_443">
<rect x="8" y="8" width="28" height="28" rx="10" fill="white"/>
</clipPath>
</defs>
</svg>
