<svg width="33" height="32" viewBox="0 0 33 32" fill="none" xmlns="http://www.w3.org/2000/svg">
<path d="M3.32967 29.3709C3.17884 29.2873 3.06554 29.0969 3.06299 28.9228C3.06197 28.8528 3.53941 27.555 4.12397 26.0388L5.18681 23.282L5.01501 22.9859C4.69897 22.4412 4.06904 21.1186 3.8726 20.5873C3.62242 19.9106 3.30841 18.6573 3.18777 17.8539C3.07065 17.0741 3.05244 15.0543 3.15601 14.3321C3.60232 11.2201 4.89007 8.59191 7.00509 6.47641C9.11792 4.36311 11.7795 3.05482 14.8328 2.62874C15.489 2.53717 17.5399 2.53717 18.1961 2.62874C22.128 3.17743 25.4714 5.23443 27.6498 8.44499C28.8041 10.1461 29.5074 11.9731 29.8455 14.1482C29.9633 14.9063 29.9777 16.974 29.8702 17.6962C29.4132 20.7668 28.0855 23.4538 26.0015 25.5257C22.7517 28.7565 18.1275 30.0993 13.5978 29.1274C12.4502 28.8812 10.7283 28.1978 9.65641 27.563L9.39365 27.4074L6.55584 28.4235C4.99504 28.9823 3.65891 29.4398 3.58665 29.4401C3.51439 29.4403 3.39875 29.4092 3.32967 29.3709Z" fill="#25D366"/>
<path d="M22.0015 21.4778C21.604 21.8707 21.1972 22.1215 20.6522 22.3095C20.1425 22.4853 19.2317 22.532 18.6905 22.4101C17.4294 22.1259 15.4983 21.1245 13.8459 19.8977C12.2845 18.7385 10.9403 17.0538 9.82111 14.8536C8.95267 13.1463 8.72223 12.0573 8.99973 10.972C9.30483 9.77885 10.2457 8.79377 11.4062 8.45264C11.6169 8.39069 11.9296 8.36523 12.4799 8.36523C13.1875 8.36523 13.2694 8.3755 13.4035 8.48101C13.4966 8.55424 13.7957 9.0824 14.2176 9.91831L14.8845 11.2398L14.8826 11.7052C14.881 12.1213 14.8603 12.2142 14.6879 12.5814C14.5819 12.8073 14.3322 13.194 14.133 13.4408L13.7709 13.8894L14.0278 14.4017C14.6957 15.7336 15.6808 16.7069 17.0442 17.3817L17.5058 17.6102L17.8195 17.327C18.4817 16.7292 19.141 16.4419 19.758 16.4822C20.1173 16.5056 20.2231 16.5483 21.455 17.1661C22.1776 17.5285 22.8181 17.8797 22.8783 17.9465C22.9749 18.0536 22.9898 18.1595 23.0054 18.8486C23.0217 19.5732 23.0126 19.6603 22.8782 20.0608C22.6888 20.625 22.4126 21.0715 22.0015 21.4778Z" fill="white"/>
</svg>
