<svg width="107" height="44" viewBox="0 0 107 44" fill="none" xmlns="http://www.w3.org/2000/svg">
<g clip-path="url(#clip0_1_466)">
<path d="M27.04 8H16.96C12.0115 8 8 12.0115 8 16.96V27.04C8 31.9885 12.0115 36 16.96 36H27.04C31.9885 36 36 31.9885 36 27.04V16.96C36 12.0115 31.9885 8 27.04 8Z" fill="white"/>
<path d="M22.0005 11.36C20.3167 11.3595 18.6706 11.8585 17.2704 12.7938C15.8702 13.7291 14.7788 15.0586 14.1344 16.6143C13.49 18.1699 13.3214 19.8817 13.65 21.5332C13.9786 23.1847 14.7897 24.7016 15.9805 25.892C17.5205 27.432 21.1493 29.6608 21.3621 32.0016C21.3957 32.3544 21.6477 32.64 22.0005 32.64C22.3533 32.64 22.6053 32.3544 22.6389 32.0016C22.8517 29.6608 26.4805 27.432 28.0205 25.892C29.2114 24.7016 30.0225 23.1847 30.3511 21.5332C30.6797 19.8817 30.5111 18.1699 29.8667 16.6143C29.2223 15.0586 28.1309 13.7291 26.7307 12.7938C25.3305 11.8585 23.6844 11.3595 22.0005 11.36Z" fill="#FF4433"/>
<path d="M21.9997 22.8517C22.7898 22.8517 23.5476 22.5378 24.1063 21.9791C24.665 21.4204 24.9789 20.6626 24.9789 19.8725C24.9789 19.0824 24.665 18.3246 24.1063 17.7659C23.5476 17.2072 22.7898 16.8933 21.9997 16.8933C21.2096 16.8933 20.4518 17.2072 19.8931 17.7659C19.3344 18.3246 19.0205 19.0824 19.0205 19.8725C19.0205 20.6626 19.3344 21.4204 19.8931 21.9791C20.4518 22.5378 21.2096 22.8517 21.9997 22.8517Z" fill="white"/>
<path fill-rule="evenodd" clip-rule="evenodd" d="M27.04 8.56H16.96C14.7322 8.56 12.5956 9.445 11.0203 11.0203C9.445 12.5956 8.56 14.7322 8.56 16.96V27.04C8.56 29.2678 9.445 31.4044 11.0203 32.9797C12.5956 34.555 14.7322 35.44 16.96 35.44H27.04C29.2678 35.44 31.4044 34.555 32.9797 32.9797C34.555 31.4044 35.44 29.2678 35.44 27.04V16.96C35.44 14.7322 34.555 12.5956 32.9797 11.0203C31.4044 9.445 29.2678 8.56 27.04 8.56ZM16.96 8C14.5837 8 12.3046 8.944 10.6243 10.6243C8.944 12.3046 8 14.5837 8 16.96L8 27.04C8 29.4163 8.944 31.6954 10.6243 33.3757C12.3046 35.056 14.5837 36 16.96 36H27.04C29.4163 36 31.6954 35.056 33.3757 33.3757C35.056 31.6954 36 29.4163 36 27.04V16.96C36 14.5837 35.056 12.3046 33.3757 10.6243C31.6954 8.944 29.4163 8 27.04 8H16.96Z" fill="black" fill-opacity="0.12"/>
</g>
<path d="M62.3039 20.9718L58.7882 24.0054L59.8593 28.5421C59.9184 28.7884 59.9032 29.0466 59.8156 29.2843C59.728 29.5219 59.5719 29.7282 59.3671 29.8772C59.1623 30.0262 58.9179 30.1111 58.6648 30.1213C58.4118 30.1314 58.1614 30.0664 57.9453 29.9343L53.9999 27.5061L50.0523 29.9343C49.8362 30.0656 49.5861 30.13 49.3335 30.1195C49.0809 30.109 48.837 30.0239 48.6326 29.8751C48.4282 29.7262 48.2724 29.5202 48.1849 29.283C48.0973 29.0458 48.0819 28.788 48.1406 28.5421L49.2156 24.0054L45.7 20.9718C45.5088 20.8065 45.3705 20.5887 45.3024 20.3453C45.2344 20.102 45.2395 19.844 45.3172 19.6035C45.3948 19.3631 45.5416 19.1509 45.7392 18.9933C45.9368 18.8358 46.1764 18.74 46.4281 18.7179L51.0375 18.346L52.8156 14.0429C52.9118 13.8083 53.0756 13.6077 53.2862 13.4666C53.4967 13.3254 53.7445 13.25 53.998 13.25C54.2515 13.25 54.4993 13.3254 54.7098 13.4666C54.9204 13.6077 55.0842 13.8083 55.1804 14.0429L56.9578 18.346L61.5671 18.7179C61.8193 18.7392 62.0596 18.8345 62.2579 18.9918C62.4562 19.1491 62.6037 19.3614 62.6819 19.6021C62.76 19.8429 62.7654 20.1013 62.6973 20.3451C62.6292 20.5889 62.4907 20.8071 62.2992 20.9725L62.3039 20.9718Z" fill="#F9CB2D"/>
<path d="M80.432 23.016H82.16V24.456H80.432V27H78.56V24.456H72.784L72.416 23.384L77.952 15.8H80.432V23.016ZM78.56 17.304L74.608 23.016H78.56V17.304ZM84.037 27V24.984H86.341V27H84.037ZM92.658 15.608C93.65 15.608 94.4927 15.8213 95.186 16.248C95.89 16.6747 96.418 17.272 96.77 18.04C97.122 18.808 97.298 19.704 97.298 20.728C97.298 22.872 96.8873 24.4827 96.066 25.56C95.2553 26.6373 94.0073 27.176 92.322 27.176C90.8927 27.176 89.6873 26.7653 88.706 25.944L89.698 24.6C90.0073 24.888 90.386 25.1067 90.834 25.256C91.282 25.4053 91.7513 25.48 92.242 25.48C94.0447 25.48 95.0527 24.4453 95.266 22.376L95.298 21.88C95.2233 22.072 95.0473 22.2853 94.77 22.52C94.4927 22.7547 94.1353 22.9573 93.698 23.128C93.2713 23.288 92.8127 23.368 92.322 23.368C91.4793 23.368 90.7487 23.208 90.13 22.888C89.5113 22.568 89.0367 22.1307 88.706 21.576C88.3753 21.0213 88.21 20.4027 88.21 19.72C88.21 18.8773 88.3967 18.1467 88.77 17.528C89.154 16.8987 89.682 16.424 90.354 16.104C91.026 15.7733 91.794 15.608 92.658 15.608ZM92.61 17.24C91.906 17.24 91.3247 17.4533 90.866 17.88C90.418 18.296 90.194 18.8507 90.194 19.544C90.194 19.9813 90.3007 20.376 90.514 20.728C90.7273 21.0693 91.0153 21.336 91.378 21.528C91.7407 21.72 92.1353 21.816 92.562 21.816C92.9887 21.816 93.3887 21.72 93.762 21.528C94.1353 21.336 94.434 21.0693 94.658 20.728C94.8927 20.376 95.01 19.976 95.01 19.528C95.01 18.8667 94.7967 18.3227 94.37 17.896C93.954 17.4587 93.3673 17.24 92.61 17.24Z" fill="#323231"/>
<defs>
<clipPath id="clip0_1_466">
<rect width="28" height="28" fill="white" transform="translate(8 8)"/>
</clipPath>
</defs>
</svg>
