<svg width="72" height="68" viewBox="0 0 72 68" fill="none" xmlns="http://www.w3.org/2000/svg">
<g filter="url(#filter0_d_1_676)">
<rect x="16" y="4" width="40" height="40" rx="12" fill="#E13B22"/>
</g>
<g clip-path="url(#clip0_1_676)">
<path d="M45.2754 30.5508L44.2361 31.5902L45.1863 32.5405H27.4596V31.0705H29.6645V26.6523C29.4775 26.6574 29.2902 26.6608 29.1024 26.6608H27.4596V25.1908H29.1023C36.0666 25.1908 42.444 21.3817 45.7458 15.2498L44.4516 14.5529C41.4066 20.2079 35.5251 23.7209 29.1023 23.7209H27.4596V14.8138L28.4098 15.764L29.4492 14.7246L26.7246 12L24 14.7246L25.0394 15.764L25.9897 14.8137V34.0104H45.1863L44.2361 34.9606L45.2754 36L48 33.2754L45.2754 30.5508Z" fill="white"/>
<path d="M33.3393 31.0705V26.2168C32.6111 26.3712 31.8751 26.4856 31.1344 26.5594V31.0705L33.3393 31.0705ZM37.0141 31.0705V25.0652C36.2948 25.3681 35.5586 25.6294 34.8092 25.8477V31.0705H37.0141ZM42.1589 31.0705V21.931C41.0263 22.8769 39.7941 23.6967 38.484 24.376V31.0705H42.1589Z" fill="white"/>
</g>
<defs>
<filter id="filter0_d_1_676" x="0" y="0" width="72" height="72" filterUnits="userSpaceOnUse" color-interpolation-filters="sRGB">
<feFlood flood-opacity="0" result="BackgroundImageFix"/>
<feColorMatrix in="SourceAlpha" type="matrix" values="0 0 0 0 0 0 0 0 0 0 0 0 0 0 0 0 0 0 127 0" result="hardAlpha"/>
<feOffset dy="12"/>
<feGaussianBlur stdDeviation="8"/>
<feComposite in2="hardAlpha" operator="out"/>
<feColorMatrix type="matrix" values="0 0 0 0 0.882353 0 0 0 0 0.231373 0 0 0 0 0.133333 0 0 0 0.32 0"/>
<feBlend mode="normal" in2="BackgroundImageFix" result="effect1_dropShadow_1_676"/>
<feBlend mode="normal" in="SourceGraphic" in2="effect1_dropShadow_1_676" result="shape"/>
</filter>
<clipPath id="clip0_1_676">
<rect width="24" height="24" fill="white" transform="translate(24 12)"/>
</clipPath>
</defs>
</svg>
