<svg width="72" height="68" viewBox="0 0 72 68" fill="none" xmlns="http://www.w3.org/2000/svg">
<g filter="url(#filter0_d_1_628)">
<rect x="16" y="4" width="40" height="40" rx="12" fill="#E13B22"/>
</g>
<g clip-path="url(#clip0_1_628)">
<path d="M45.1769 21.1765C44.4228 21.1765 43.7137 21.4702 43.1804 22.0035C42.8178 22.3661 42.5663 22.81 42.4422 23.2941H40.1264C40.0202 22.6644 39.7722 22.0671 39.4012 21.5473L43.6936 17.255C45.5311 18.3704 47.9715 16.9859 47.9502 14.8236C47.9502 13.2668 46.6835 12.0001 45.1267 12.0001C42.9644 11.979 41.5798 14.4192 42.6953 16.2567L38.403 20.5491C36.9466 19.511 34.9764 19.495 33.4976 20.5491L31.3229 18.3744C32.4383 16.5368 31.0538 14.0964 28.8915 14.1178C27.3347 14.1178 26.0681 15.3844 26.0681 16.9413C26.0469 19.1036 28.4871 20.4882 30.3247 19.3726L32.4994 21.5473C31.4524 23.0161 31.4532 24.9871 32.5013 26.4553L28.2546 30.7434C26.417 29.6308 23.9794 31.0155 24.0007 33.1764C24.0007 34.7332 25.2674 35.9999 26.8242 35.9999C28.9879 36.021 30.3723 33.578 29.2541 31.7406L33.5003 27.4528C34.0099 27.8155 34.603 28.068 35.2947 28.1761V29.8384C33.1616 30.2933 32.4034 33.0582 33.9538 34.5675C35.0545 35.6682 36.8458 35.6685 37.9468 34.5675C39.0478 33.4666 39.0478 31.6753 37.9468 30.5745C37.5771 30.2047 37.1293 29.9598 36.7065 29.8384V28.176C38.427 27.8776 39.828 26.4767 40.1264 24.7058H42.4423C42.5664 25.1899 42.8178 25.6339 43.1805 25.9964C44.2838 27.0999 46.0699 27.1001 47.1735 25.9964C48.9447 24.2384 47.6764 21.1683 45.1769 21.1765Z" fill="white"/>
</g>
<defs>
<filter id="filter0_d_1_628" x="0" y="0" width="72" height="72" filterUnits="userSpaceOnUse" color-interpolation-filters="sRGB">
<feFlood flood-opacity="0" result="BackgroundImageFix"/>
<feColorMatrix in="SourceAlpha" type="matrix" values="0 0 0 0 0 0 0 0 0 0 0 0 0 0 0 0 0 0 127 0" result="hardAlpha"/>
<feOffset dy="12"/>
<feGaussianBlur stdDeviation="8"/>
<feComposite in2="hardAlpha" operator="out"/>
<feColorMatrix type="matrix" values="0 0 0 0 0.882353 0 0 0 0 0.231373 0 0 0 0 0.133333 0 0 0 0.32 0"/>
<feBlend mode="normal" in2="BackgroundImageFix" result="effect1_dropShadow_1_628"/>
<feBlend mode="normal" in="SourceGraphic" in2="effect1_dropShadow_1_628" result="shape"/>
</filter>
<clipPath id="clip0_1_628">
<rect width="24" height="24" fill="white" transform="translate(24 12)"/>
</clipPath>
</defs>
</svg>
