<svg width="72" height="68" viewBox="0 0 72 68" fill="none" xmlns="http://www.w3.org/2000/svg">
<g filter="url(#filter0_d_1_692)">
<rect x="16" y="4" width="40" height="40" rx="12" fill="#E13B22"/>
</g>
<path d="M42.8151 28.855L41.9858 27.7194C40.6253 28.7131 39.0127 29.2383 37.3223 29.2383C32.9574 29.2383 29.4062 25.6871 29.4062 21.3223C29.4062 16.9574 32.9574 13.4062 37.3223 13.4062V12C32.182 12 28 16.182 28 21.3223C28 26.2703 31.8753 30.3296 36.7499 30.6264V31.875H35.1327C34.0342 31.875 33.1405 32.7687 33.1405 33.8672V36H41.6718V33.8672C41.6718 32.7687 40.778 31.875 39.6796 31.875H38.1561V30.6075C39.8413 30.459 41.4377 29.861 42.815 28.855H42.8151Z" fill="white"/>
<path d="M36.2132 16.6252C35.8259 17.7041 35.5901 19.1023 35.5341 20.6191H39.1103C39.0544 19.1023 38.8186 17.7041 38.4313 16.6252C37.9833 15.3766 37.51 15.0469 37.3223 15.0469C37.1345 15.0469 36.6612 15.3766 36.2132 16.6252ZM31.0864 20.6191H34.1272C34.1968 18.655 34.5579 16.7422 35.1971 15.4175C32.9912 16.2138 31.356 18.213 31.0864 20.6191ZM39.4473 27.2271C41.6533 26.4307 43.2886 24.4316 43.5581 22.0254H40.5173C40.4477 23.9895 40.0866 25.9023 39.4474 27.2271H39.4473ZM43.5579 20.6191C43.2884 18.213 41.6533 16.2138 39.4474 15.4175C40.0866 16.7422 40.4477 18.655 40.5173 20.6191H43.5579ZM36.2132 26.0193C36.6612 27.2679 37.1346 27.5977 37.3223 27.5977C37.5099 27.5977 37.9833 27.2679 38.4313 26.0193C38.8186 24.9405 39.0544 23.5422 39.1103 22.0254H35.5341C35.5901 23.5423 35.8259 24.9405 36.2132 26.0193ZM31.0864 22.0254C31.356 24.4316 32.9912 26.4307 35.1971 27.2271C34.5579 25.9023 34.1968 23.9895 34.1273 22.0254H31.0864Z" fill="white"/>
<defs>
<filter id="filter0_d_1_692" x="0" y="0" width="72" height="72" filterUnits="userSpaceOnUse" color-interpolation-filters="sRGB">
<feFlood flood-opacity="0" result="BackgroundImageFix"/>
<feColorMatrix in="SourceAlpha" type="matrix" values="0 0 0 0 0 0 0 0 0 0 0 0 0 0 0 0 0 0 127 0" result="hardAlpha"/>
<feOffset dy="12"/>
<feGaussianBlur stdDeviation="8"/>
<feComposite in2="hardAlpha" operator="out"/>
<feColorMatrix type="matrix" values="0 0 0 0 0.882353 0 0 0 0 0.231373 0 0 0 0 0.133333 0 0 0 0.32 0"/>
<feBlend mode="normal" in2="BackgroundImageFix" result="effect1_dropShadow_1_692"/>
<feBlend mode="normal" in="SourceGraphic" in2="effect1_dropShadow_1_692" result="shape"/>
</filter>
</defs>
</svg>
