<svg width="72" height="68" viewBox="0 0 72 68" fill="none" xmlns="http://www.w3.org/2000/svg">
<g filter="url(#filter0_d_1_684)">
<rect x="16" y="4" width="40" height="40" rx="12" fill="#E13B22"/>
</g>
<g clip-path="url(#clip0_1_684)">
<path d="M33.6632 31.7583V26.4599H28.3065V12.0649L48 31.7583H33.6632Z" fill="white"/>
<path d="M28.3066 27.8816H32.2416V31.7584H28.3066V27.8816ZM32.1712 33.8973H43.6724V33.2813H45.094V35.9351H43.6724V35.319H32.1712V35.9351H30.7495V33.2813H32.1712V33.8973ZM44.3437 25.9123L43.3417 24.9038L43.7787 24.4696L35.6726 16.3107L35.2355 16.745L34.2335 15.7364L36.1161 13.866L37.1181 14.8745L36.6811 15.3087L44.7872 23.4675L45.2243 23.0333L46.2263 24.0418L44.3437 25.9123ZM24 16.462V15.0403H26.6538V16.462H26.0378V27.9631H26.6538V29.3848H24V27.9631H24.6161V16.462H24Z" fill="white"/>
</g>
<defs>
<filter id="filter0_d_1_684" x="0" y="0" width="72" height="72" filterUnits="userSpaceOnUse" color-interpolation-filters="sRGB">
<feFlood flood-opacity="0" result="BackgroundImageFix"/>
<feColorMatrix in="SourceAlpha" type="matrix" values="0 0 0 0 0 0 0 0 0 0 0 0 0 0 0 0 0 0 127 0" result="hardAlpha"/>
<feOffset dy="12"/>
<feGaussianBlur stdDeviation="8"/>
<feComposite in2="hardAlpha" operator="out"/>
<feColorMatrix type="matrix" values="0 0 0 0 0.882353 0 0 0 0 0.231373 0 0 0 0 0.133333 0 0 0 0.32 0"/>
<feBlend mode="normal" in2="BackgroundImageFix" result="effect1_dropShadow_1_684"/>
<feBlend mode="normal" in="SourceGraphic" in2="effect1_dropShadow_1_684" result="shape"/>
</filter>
<clipPath id="clip0_1_684">
<rect width="24" height="24" fill="white" transform="translate(24 12)"/>
</clipPath>
</defs>
</svg>
