<svg width="72" height="68" viewBox="0 0 72 68" fill="none" xmlns="http://www.w3.org/2000/svg">
<g filter="url(#filter0_d_1_603)">
<rect x="16" y="4" width="40" height="40" rx="12" fill="#E13B22"/>
</g>
<g clip-path="url(#clip0_1_603)">
<path d="M25.2204 24.5088H26.2133L31.137 31.5154C31.2726 31.7081 31.4611 31.8575 31.6797 31.9454C31.8983 32.0334 32.1377 32.0561 32.369 32.011C32.6004 31.9659 32.8137 31.8547 32.9833 31.6909C33.1528 31.5272 33.2713 31.3178 33.3245 31.0881L36.2581 18.407H46.7795C46.9415 18.4097 47.1024 18.3801 47.2528 18.32C47.4032 18.2598 47.5402 18.1704 47.6557 18.0568C47.7711 17.9432 47.8629 17.8077 47.9255 17.6583C47.9881 17.5089 48.0203 17.3486 48.0203 17.1866C48.0203 17.0246 47.9881 16.8642 47.9255 16.7148C47.8629 16.5654 47.7711 16.4299 47.6557 16.3163C47.5402 16.2028 47.4032 16.1133 47.2528 16.0531C47.1024 15.993 46.9415 15.9634 46.7795 15.9661H35.288C35.0121 15.9661 34.7444 16.0596 34.5284 16.2313C34.3125 16.403 34.1611 16.6428 34.0989 16.9115L31.5627 27.8754L27.8459 22.5865C27.7332 22.4264 27.5837 22.2957 27.41 22.2054C27.2362 22.1152 27.0433 22.0681 26.8475 22.0681H25.2204C24.9011 22.0745 24.5969 22.2059 24.3733 22.4341C24.1498 22.6623 24.0245 22.969 24.0245 23.2884C24.0245 23.6079 24.1498 23.9146 24.3733 24.1427C24.5969 24.3709 24.9011 24.5023 25.2204 24.5088Z" fill="white"/>
<path d="M37.6467 29.6964C37.6467 30.2957 38.1353 30.7365 38.7653 30.7365C39.191 30.7365 39.5219 30.4687 39.8054 30.1219L41.5075 27.8842L43.2093 30.1219C43.5246 30.5159 43.8552 30.7365 44.3278 30.7365C44.9272 30.7365 45.431 30.311 45.431 29.6336C45.431 29.3185 45.3048 29.0348 45.0368 28.7192L42.9251 26.2927L44.9741 23.897C45.1635 23.6606 45.3048 23.4084 45.3048 23.0773C45.3048 22.478 44.8162 22.0369 44.1858 22.0369C43.7602 22.0369 43.4296 22.3049 43.1457 22.652L41.5539 24.7318L39.994 22.652C39.6784 22.2578 39.3479 22.0369 38.8754 22.0369C38.2762 22.0369 37.7723 22.4628 37.7723 23.1404C37.7723 23.4552 37.8985 23.7392 38.166 24.054L40.1359 26.3236L37.9768 28.8765C37.7728 29.1131 37.6467 29.3653 37.6467 29.6964Z" fill="white"/>
</g>
<defs>
<filter id="filter0_d_1_603" x="0" y="0" width="72" height="72" filterUnits="userSpaceOnUse" color-interpolation-filters="sRGB">
<feFlood flood-opacity="0" result="BackgroundImageFix"/>
<feColorMatrix in="SourceAlpha" type="matrix" values="0 0 0 0 0 0 0 0 0 0 0 0 0 0 0 0 0 0 127 0" result="hardAlpha"/>
<feOffset dy="12"/>
<feGaussianBlur stdDeviation="8"/>
<feComposite in2="hardAlpha" operator="out"/>
<feColorMatrix type="matrix" values="0 0 0 0 0.882353 0 0 0 0 0.231373 0 0 0 0 0.133333 0 0 0 0.32 0"/>
<feBlend mode="normal" in2="BackgroundImageFix" result="effect1_dropShadow_1_603"/>
<feBlend mode="normal" in="SourceGraphic" in2="effect1_dropShadow_1_603" result="shape"/>
</filter>
<clipPath id="clip0_1_603">
<rect width="24" height="24" fill="white" transform="translate(24 12)"/>
</clipPath>
</defs>
</svg>
