<svg width="72" height="68" viewBox="0 0 72 68" fill="none" xmlns="http://www.w3.org/2000/svg">
<g filter="url(#filter0_d_1_619)">
<rect x="16" y="4" width="40" height="40" rx="12" fill="#E13B22"/>
</g>
<g clip-path="url(#clip0_1_619)">
<path d="M44.7977 24C46.5828 22.2506 47.5257 20.433 46.8331 18.9483C46.006 17.175 43.3182 16.8811 40.155 17.478C39.3592 14.3588 37.957 12 35.9999 12C34.043 12 32.6408 14.3588 31.8449 17.4778C28.6816 16.8809 25.9939 17.175 25.1667 18.9483C24.4742 20.433 25.4171 22.2506 27.2022 24C25.4171 25.7494 24.4742 27.567 25.1668 29.0517C26.1517 31.1636 29.5549 30.9493 31.8439 30.5179C32.6394 33.6392 34.0421 36 35.9999 36C37.9578 36 39.3605 33.6392 40.156 30.5179C42.4584 30.9517 45.8504 31.1575 46.8331 29.0516C47.5257 27.5669 46.5828 25.7494 44.7977 24ZM26.4411 19.543C27.0433 18.2501 30.1262 18.5967 31.5417 18.8562C31.4141 19.539 31.3127 20.2459 31.2378 20.9665C30.1546 21.6156 29.1438 22.3213 28.2581 23.0541C27.4296 22.2467 25.9526 20.5895 26.4411 19.543ZM31.1097 25.2964C30.4628 24.875 29.8507 24.4435 29.305 24C29.8507 23.5565 30.4628 23.1249 31.1097 22.7036C31.0681 23.6518 31.0672 24.329 31.1097 25.2964ZM26.4411 28.457C25.9523 27.4099 27.4312 25.7516 28.2581 24.9459C29.1438 25.6787 30.1546 26.3844 31.2378 27.0335C31.3128 27.7548 31.4143 28.4624 31.5421 29.146C28.8375 29.6427 26.8667 29.3719 26.4411 28.457ZM39.2421 20.1161C38.5147 19.7373 38.1931 19.5937 37.951 19.482C38.3374 19.3618 38.7157 19.2534 39.0844 19.1587C39.1436 19.4767 39.1962 19.7959 39.2421 20.1161ZM35.9999 13.4062C37.0083 13.4062 38.0866 15.1245 38.7797 17.7852C37.8647 18.0202 36.929 18.3163 36.0002 18.6659C35.0713 18.3162 34.1355 18.0199 33.2204 17.7849C33.9133 15.1245 34.9916 13.4062 35.9999 13.4062ZM32.9161 19.1558C33.2857 19.2508 33.6654 19.3598 34.0528 19.4803C33.7686 19.6114 33.4687 19.7459 32.7579 20.1162C32.8039 19.795 32.8566 19.4748 32.9161 19.1558ZM32.7579 27.8838C33.4788 28.2594 33.7688 28.3884 34.0495 28.5178C33.6629 28.6381 33.2845 28.7466 32.9156 28.8414C32.8563 28.5234 32.8037 28.2041 32.7579 27.8838ZM35.9999 34.5938C34.9914 34.5938 33.9129 32.8749 33.2199 30.2134C34.1355 29.9783 35.0704 29.6807 35.9999 29.331C36.9295 29.6807 37.8644 29.9783 38.78 30.2134C38.087 32.8749 37.0085 34.5938 35.9999 34.5938ZM39.0843 28.8412C38.7155 28.7465 38.337 28.638 37.9504 28.5177C38.2514 28.3793 38.5184 28.2607 39.242 27.8838C39.1961 28.204 39.1436 28.5232 39.0843 28.8412ZM39.4325 26.1876C38.2079 26.8748 37.1414 27.3677 35.9999 27.8236C34.8435 27.3617 33.792 26.8748 32.5674 26.1876C32.459 24.7817 32.4542 23.2811 32.5674 21.8124C33.8018 21.1196 34.8676 20.6288 35.9999 20.1765C37.1541 20.6374 38.2055 21.1237 39.4325 21.8124C39.5409 23.2183 39.5457 24.7189 39.4325 26.1876ZM45.5587 19.543C46.0476 20.5901 44.5686 22.2484 43.7418 23.0541C42.8561 22.3213 41.8453 21.6156 40.7621 20.9665C40.6871 20.2453 40.5857 19.5377 40.4579 18.8543C43.1619 18.3579 45.1324 18.629 45.5587 19.543ZM40.8902 22.7036C41.5371 23.125 42.1492 23.5565 42.6949 24C42.1492 24.4435 41.5371 24.8751 40.8902 25.2964C40.9318 24.3482 40.9326 23.671 40.8902 22.7036ZM45.5587 28.457C45.1332 29.3707 43.1626 29.6419 40.4579 29.1456C40.5857 28.4621 40.6871 27.7547 40.7621 27.0335C41.8453 26.3844 42.8561 25.6787 43.7418 24.9459C44.5703 25.7533 46.0473 27.4105 45.5587 28.457Z" fill="white"/>
<path d="M36 21.8906C34.8368 21.8906 33.8906 22.8368 33.8906 24C33.8906 25.1632 34.8368 26.1094 36 26.1094C37.1632 26.1094 38.1094 25.1632 38.1094 24C38.1094 22.8368 37.1632 21.8906 36 21.8906Z" fill="white"/>
</g>
<defs>
<filter id="filter0_d_1_619" x="0" y="0" width="72" height="72" filterUnits="userSpaceOnUse" color-interpolation-filters="sRGB">
<feFlood flood-opacity="0" result="BackgroundImageFix"/>
<feColorMatrix in="SourceAlpha" type="matrix" values="0 0 0 0 0 0 0 0 0 0 0 0 0 0 0 0 0 0 127 0" result="hardAlpha"/>
<feOffset dy="12"/>
<feGaussianBlur stdDeviation="8"/>
<feComposite in2="hardAlpha" operator="out"/>
<feColorMatrix type="matrix" values="0 0 0 0 0.882353 0 0 0 0 0.231373 0 0 0 0 0.133333 0 0 0 0.32 0"/>
<feBlend mode="normal" in2="BackgroundImageFix" result="effect1_dropShadow_1_619"/>
<feBlend mode="normal" in="SourceGraphic" in2="effect1_dropShadow_1_619" result="shape"/>
</filter>
<clipPath id="clip0_1_619">
<rect width="24" height="24" fill="white" transform="translate(24 12)"/>
</clipPath>
</defs>
</svg>
