<svg width="72" height="68" viewBox="0 0 72 68" fill="none" xmlns="http://www.w3.org/2000/svg">
<g filter="url(#filter0_d_1_611)">
<rect x="16" y="4" width="40" height="40" rx="12" fill="#E13B22"/>
</g>
<path d="M29.3773 19.078H29.9664L29.6719 18.4758L29.3773 19.078Z" fill="white"/>
<path d="M29.6719 13.4531C26.5703 13.4531 24 15.9765 24 19.0781C24 22.1797 26.5703 24.7031 29.6719 24.7031C30.5947 24.7031 31.5148 24.4628 32.3498 24.0068L34.9755 24.3818L34.6006 21.756C35.0565 20.9211 35.2969 20.001 35.2969 19.0781C35.2969 15.9765 32.7735 13.4531 29.6719 13.4531ZM31.1495 21.4965L30.6544 20.4844H28.6894L28.1942 21.4965L26.9308 20.8785L29.1878 16.2656H30.1638L32.413 20.8785L31.1495 21.4965ZM42.3281 13.4531C39.2265 13.4531 36.7031 15.9765 36.7031 19.0781C36.7031 20.001 36.9435 20.9211 37.3994 21.756L37.0245 24.3818L39.6503 24.0069C40.4852 24.4628 41.4053 24.7031 42.3281 24.7031C45.4297 24.7031 48 22.1797 48 19.0781C48 15.9765 45.4297 13.4531 42.3281 13.4531ZM41.625 19.7812H40.2188V18.375H41.625V19.7812ZM44.4375 19.7812H43.0312V18.375H44.4375V19.7812ZM45.4077 31.7344C42.9351 31.7344 42.1469 31.3107 41.4506 30.9365C40.893 30.6378 40.317 30.3281 39.1977 30.3281C38.0352 30.3281 36.8947 30.7422 36 31.4769C35.1053 30.7422 33.9648 30.3281 32.8023 30.3281C31.683 30.3281 31.107 30.6378 30.5494 30.9365C29.8531 31.3107 29.0649 31.7344 26.5923 31.7344H26.1562L24 34.5469H26.8449C28.7998 34.5469 29.9397 34.0559 30.855 33.6611C31.5306 33.3706 32.0641 33.1406 32.8023 33.1406C34.0513 33.1406 34.8169 33.3734 35.3635 33.92L36 34.5469L36.6365 33.92C37.1831 33.3734 37.9487 33.1406 39.1977 33.1406C39.9359 33.1406 40.4694 33.3706 41.145 33.6611C42.0603 34.0559 43.2002 34.5469 45.1551 34.5469H48L45.8438 31.7344H45.4077ZM31.1235 26.3064C30.3338 26.4698 29.7687 26.7212 29.2702 26.9437C28.5808 27.2506 27.9855 27.5156 26.8449 27.5156H25.4062V28.9219H26.8449C28.2841 28.9219 29.0765 28.569 29.8421 28.2277C30.318 28.0162 30.767 27.8164 31.4077 27.6838C32.334 27.4909 33.2588 27.7271 34.0162 28.3444C34.3302 28.5998 34.5743 28.9128 34.7781 29.2484C35.2005 29.3855 35.6129 29.5538 35.9999 29.7753C36.3869 29.5538 36.7993 29.3855 37.2217 29.2484C37.4255 28.9128 37.6696 28.5998 37.9836 28.3444C38.7417 27.7271 39.668 27.4943 40.5922 27.6838C41.2328 27.8163 41.6819 28.0162 42.1577 28.2283C42.9234 28.569 43.7158 28.9219 45.1551 28.9219H46.5469V27.5156H45.1551C44.0145 27.5156 43.4192 27.2506 42.7298 26.9437C42.2313 26.7212 41.6663 26.4699 40.8766 26.3064C39.5507 26.0332 38.1726 26.3778 37.0952 27.2533C36.6415 27.6231 36.2896 28.0771 36 28.5653C35.7105 28.0771 35.3586 27.6231 34.9049 27.2533C33.8281 26.3772 32.4507 26.0332 31.1235 26.3064Z" fill="white"/>
<defs>
<filter id="filter0_d_1_611" x="0" y="0" width="72" height="72" filterUnits="userSpaceOnUse" color-interpolation-filters="sRGB">
<feFlood flood-opacity="0" result="BackgroundImageFix"/>
<feColorMatrix in="SourceAlpha" type="matrix" values="0 0 0 0 0 0 0 0 0 0 0 0 0 0 0 0 0 0 127 0" result="hardAlpha"/>
<feOffset dy="12"/>
<feGaussianBlur stdDeviation="8"/>
<feComposite in2="hardAlpha" operator="out"/>
<feColorMatrix type="matrix" values="0 0 0 0 0.882353 0 0 0 0 0.231373 0 0 0 0 0.133333 0 0 0 0.32 0"/>
<feBlend mode="normal" in2="BackgroundImageFix" result="effect1_dropShadow_1_611"/>
<feBlend mode="normal" in="SourceGraphic" in2="effect1_dropShadow_1_611" result="shape"/>
</filter>
</defs>
</svg>
