<svg width="72" height="68" viewBox="0 0 72 68" fill="none" xmlns="http://www.w3.org/2000/svg">
<g filter="url(#filter0_d_1_652)">
<rect x="16" y="4" width="40" height="40" rx="12" fill="#E13B22"/>
</g>
<path d="M36.7031 17.9582V15.8164C37.4449 15.5324 37.9732 14.8135 37.9732 13.9732C37.9732 12.8851 37.088 12 36 12C34.912 12 34.0268 12.8851 34.0268 13.9732C34.0268 14.8135 34.5551 15.5325 35.2969 15.8164V17.9582C35.5285 17.9128 35.764 17.8898 36 17.8898C36.236 17.8899 36.4715 17.9128 36.7031 17.9582ZM32.5655 22.829C32.4794 22.5978 32.417 22.3584 32.3794 22.1146C32.3509 21.9289 32.3365 21.7413 32.3364 21.5534C32.3364 21.3965 32.3475 21.2422 32.3667 21.0904L29.2575 19.2946C29.2736 19.1931 29.2823 19.0891 29.2823 18.9831C29.2823 17.8955 28.4006 17.0139 27.3131 17.0139C26.2256 17.0139 25.344 17.8955 25.344 18.9831C25.344 20.0706 26.2256 20.9522 27.3131 20.9522C27.7653 20.9528 28.2038 20.7971 28.5543 20.5115L32.5655 22.829ZM28.5496 27.4848C28.1998 27.2015 27.7632 27.0472 27.3131 27.0478C26.2256 27.0478 25.344 27.9294 25.344 29.0169C25.344 30.1045 26.2256 30.9861 27.3131 30.9861C28.4006 30.9861 29.2823 30.1045 29.2823 29.0169C29.2823 28.9108 29.2736 28.8067 29.2574 28.705L30.9411 27.7329C30.9411 27.7329 30.943 26.9391 30.9468 26.8547C30.9592 26.583 30.9935 26.3128 31.0494 26.0466L28.5496 27.4848ZM39.4346 22.829C39.5206 22.5978 39.583 22.3584 39.6206 22.1146C39.6492 21.9296 39.6636 21.7408 39.6636 21.5534C39.6636 21.3965 39.6525 21.2422 39.6333 21.0904L42.7425 19.2946C42.7261 19.1916 42.7178 19.0874 42.7178 18.9831C42.7178 17.8955 43.5994 17.0139 44.6869 17.0139C45.7744 17.0139 46.656 17.8955 46.656 18.9831C46.656 20.0706 45.7744 20.9522 44.6869 20.9522C44.2347 20.9528 43.7962 20.7971 43.4457 20.5115L39.4346 22.829ZM43.4505 27.4848C43.8002 27.2015 44.2368 27.0472 44.6869 27.0478C45.7745 27.0478 46.6561 27.9294 46.6561 29.0169C46.6561 30.1045 45.7744 30.9861 44.6869 30.9861C43.5994 30.9861 42.7178 30.1045 42.7178 29.0169C42.7178 28.9108 42.7265 28.8067 42.7426 28.705L41.059 27.7329C41.059 27.7329 41.0571 26.9391 41.0533 26.8547C41.0408 26.583 41.0065 26.3128 40.9507 26.0466L43.4505 27.4848ZM35.297 32.1837C34.5554 32.4677 34.0271 33.1865 34.0271 34.0268C34.0271 35.1148 34.9123 36 36.0003 36C37.0883 36 37.9735 35.1149 37.9735 34.0268C37.9735 33.1864 37.4451 32.4675 36.7033 32.1836V29.5621H35.297V32.1837ZM38.3896 24.3269C37.7476 24.8809 36.9126 25.217 36.0001 25.217C35.0875 25.217 34.2525 24.8809 33.6105 24.3269C32.8376 24.9972 32.3473 25.9851 32.3473 27.086V28.1558H39.6527V27.086C39.6527 25.9851 39.1625 24.9972 38.3896 24.3269Z" fill="white"/>
<path d="M38.0902 22.4196C38.5677 21.2679 38.0212 19.9473 36.8696 19.4698C35.7179 18.9923 34.3973 19.5388 33.9198 20.6904C33.4423 21.842 33.9888 23.1627 35.1404 23.6402C36.292 24.1177 37.6127 23.5712 38.0902 22.4196Z" fill="white"/>
<defs>
<filter id="filter0_d_1_652" x="0" y="0" width="72" height="72" filterUnits="userSpaceOnUse" color-interpolation-filters="sRGB">
<feFlood flood-opacity="0" result="BackgroundImageFix"/>
<feColorMatrix in="SourceAlpha" type="matrix" values="0 0 0 0 0 0 0 0 0 0 0 0 0 0 0 0 0 0 127 0" result="hardAlpha"/>
<feOffset dy="12"/>
<feGaussianBlur stdDeviation="8"/>
<feComposite in2="hardAlpha" operator="out"/>
<feColorMatrix type="matrix" values="0 0 0 0 0.882353 0 0 0 0 0.231373 0 0 0 0 0.133333 0 0 0 0.32 0"/>
<feBlend mode="normal" in2="BackgroundImageFix" result="effect1_dropShadow_1_652"/>
<feBlend mode="normal" in="SourceGraphic" in2="effect1_dropShadow_1_652" result="shape"/>
</filter>
</defs>
</svg>
